<?xml version="1.0" encoding="UTF-8"?>
<svg id="Capa_4" data-name="Capa 4" xmlns="http://www.w3.org/2000/svg" version="1.1" viewBox="0 0 188.2 1088.54">
  <defs>
    <style>
      .cls-1, .cls-2 {
        fill: none;
        stroke: #247329;
        stroke-miterlimit: 10;
      }

      .cls-2 {
        stroke-linecap: round;
        stroke-width: 4px;
      }

      .cls-3 {
        fill: #247329;
        stroke-width: 0px;
      }
    </style>
  </defs>
  <path class="cls-1" d="M42.64,1073.84c-.58,0-1.16-.13-1.71-.4-1.91-.95-2.7-3.27-1.75-5.18,1.03-2.08,103.44-210.1,124.99-359.49,11.29-78.3-13.37-152.06-39.48-230.16-22.04-65.94-44.84-134.12-51.81-215.25-4.99-58.11,7.72-122.05,19.26-165.47,12.48-46.96,26.34-80.73,26.48-81.07.81-1.97,3.07-2.91,5.05-2.1,1.97.81,2.91,3.07,2.1,5.05-.55,1.32-54.55,133.75-45.18,242.92,6.89,80.22,29.53,147.96,51.43,213.46,26.41,78.99,51.35,153.6,39.8,233.72-21.72,150.62-124.67,359.72-125.71,361.82-.67,1.36-2.04,2.15-3.47,2.15Z"/>
  <path class="cls-2" d="M122.2,18.3s-55.02,133.32-45.46,244.73c15.5,180.45,111.92,303.04,91.26,446.3-21.89,151.75-125.35,360.65-125.35,360.65"/>
  <g>
    <ellipse class="cls-3" cx="42.65" cy="1069.98" rx="10.62" ry="10.63"/>
    <ellipse class="cls-1" cx="42.65" cy="1069.98" rx="18.88" ry="18.9"/>
  </g>
  <g>
    <ellipse class="cls-3" cx="122.41" cy="18.9" rx="10.62" ry="10.63"/>
    <ellipse class="cls-1" cx="122.41" cy="18.9" rx="18.88" ry="18.9"/>
  </g>
  <g>
    <ellipse class="cls-3" cx="95.5" cy="373.12" rx="10.62" ry="10.63"/>
    <ellipse class="cls-1" cx="95.5" cy="373.12" rx="18.88" ry="18.9"/>
  </g>
  <g>
    <ellipse class="cls-3" cx="164.11" cy="719.52" rx="10.62" ry="10.63"/>
    <ellipse class="cls-1" cx="164.11" cy="719.52" rx="18.88" ry="18.9"/>
  </g>
</svg>