<?xml version="1.0" encoding="UTF-8"?>
<svg id="Capa_3" data-name="Capa 3" xmlns="http://www.w3.org/2000/svg" version="1.1" viewBox="0 0 844.04 1088.54">
  <defs>
    <style>
      .cls-1, .cls-2 {
        fill: none;
        stroke: #247329;
        stroke-miterlimit: 10;
      }

      .cls-2 {
        stroke-linecap: round;
        stroke-width: 4px;
      }

      .cls-3 {
        fill: #247329;
        stroke-width: 0px;
      }
    </style>
  </defs>
  <path class="cls-1" d="M333.86,1092.53c-46.31,0-86.74-7.51-120.94-22.53-58.98-25.9-99.65-74.39-120.87-144.11-12.15-39.93-10.79-78.93,4.05-115.91,13.33-33.23,37.22-65.31,73.04-98.06,66.08-60.44,164.35-114.4,259.38-166.59,94.91-52.12,193.06-106.02,260.57-166.81,76.07-68.5,103.16-135.38,85.25-210.47-12.77-53.57-42.45-93.83-88.21-119.66-57.4-32.4-140.59-42.91-247.27-31.24-77.59,8.49-165.53,28.31-261.38,58.91-2.11.67-4.35-.49-5.03-2.59-.67-2.1.49-4.35,2.59-5.03,96.35-30.77,184.82-50.7,262.94-59.25,108.38-11.85,193.19-1.01,252.08,32.23,47.77,26.96,78.74,68.94,92.06,124.77,9.73,40.82,6.21,80.67-10.48,118.44-14.97,33.88-40.22,66.53-77.2,99.83-68.2,61.42-166.76,115.54-262.08,167.88-94.62,51.96-192.46,105.69-257.83,165.48-73.36,67.09-97.13,132.47-74.83,205.75,20.51,67.38,59.69,114.19,116.44,139.11,63.01,27.67,148.2,29.09,253.22,4.22,76.21-18.05,160.8-49.27,251.42-92.78,1.99-.96,4.38-.12,5.34,1.87.96,1.99.12,4.38-1.87,5.34-91.13,43.76-176.27,75.17-253.03,93.36-50.26,11.9-96.13,17.85-137.34,17.86Z"/>
  <path class="cls-2" d="M176.26,72.26C373.29,9.34,722.63-66.02,778.22,167.12,858.75,504.84-4.25,595.84,95.87,924.73c82.45,270.84,435.43,144.8,626.63,52.99"/>
  <g>
    <ellipse class="cls-3" cx="171.15" cy="75.85" rx="10.99" ry="11"/>
    <ellipse class="cls-1" cx="171.15" cy="75.85" rx="19.54" ry="19.56"/>
  </g>
  <g>
    <ellipse class="cls-3" cx="769.03" cy="139.34" rx="10.99" ry="11"/>
    <ellipse class="cls-1" cx="769.03" cy="139.34" rx="19.54" ry="19.56"/>
  </g>
  <g>
    <ellipse class="cls-3" cx="103.12" cy="803.22" rx="10.99" ry="11"/>
    <ellipse class="cls-1" cx="103.12" cy="803.22" rx="19.54" ry="19.56"/>
  </g>
  <g>
    <ellipse class="cls-3" cx="728.81" cy="975.56" rx="10.99" ry="11"/>
    <ellipse class="cls-1" cx="728.81" cy="975.56" rx="19.54" ry="19.56"/>
  </g>
</svg>