<?xml version="1.0" encoding="utf-8"?>
<!-- Generator: Adobe Illustrator 28.3.0, SVG Export Plug-In . SVG Version: 6.00 Build 0)  -->
<svg version="1.1" id="Capa_2" xmlns="http://www.w3.org/2000/svg" xmlns:xlink="http://www.w3.org/1999/xlink" x="0px" y="0px"
	 viewBox="0 0 1914.99 592.52" style="enable-background:new 0 0 1914.99 592.52;" xml:space="preserve">
<style type="text/css">
	.st0{fill:#FFFFFF;}
</style>
<g>
	<polygon class="st0" points="309.4,219.26 466.88,438.52 314.97,438.52 233.44,325.01 151.92,438.52 0,438.52 157.49,219.26 0,0 
		151.92,0 233.44,113.51 314.97,0 466.88,0 	"/>
	<path class="st0" d="M505.1,592.52V130.01h40.89l3.83,58.13c6.81-11.5,15.75-22.25,26.83-32.26c11.07-10,24.38-18.1,39.93-24.28
		c15.54-6.17,33.32-9.26,53.34-9.26c31.08,0,58.23,7.46,81.45,22.36c23.21,14.91,41.2,35.04,53.98,60.37
		c12.78,25.34,19.17,54.2,19.17,86.56c0,32.37-6.5,61.23-19.48,86.56c-13,25.34-30.98,45.26-53.98,59.73
		c-23,14.47-50.26,21.72-81.77,21.72c-27.26,0-51.22-5.86-71.87-17.57c-20.66-11.71-36.52-28.21-47.59-49.51v199.95H505.1z
		 M666.09,420.68c22.14,0,41.73-5.43,58.77-16.29c17.03-10.86,30.34-25.87,39.93-45.04c9.58-19.16,14.37-41.94,14.37-68.36
		c0-25.97-4.79-48.76-14.37-68.35c-9.58-19.58-22.9-34.71-39.93-45.36c-17.04-10.64-36.63-15.97-58.77-15.97
		c-22.15,0-41.74,5.33-58.77,15.97c-17.04,10.65-30.45,25.66-40.25,45.04c-9.8,19.39-14.69,42.27-14.69,68.67
		c0,25.98,4.89,48.66,14.69,68.04c9.79,19.38,23.21,34.5,40.25,45.36C624.35,415.25,643.94,420.68,666.09,420.68z"/>
	<path class="st0" d="M901.17,451.98V0h44.72v451.98H901.17z"/>
	<path class="st0" d="M1178.42,459.65c-29.39,0-55.9-6.93-79.53-20.76c-23.64-13.83-42.27-33.43-55.9-58.77
		c-13.64-25.33-20.44-54.83-20.44-88.48c0-34.92,6.92-64.94,20.76-90.07c13.84-25.12,32.68-44.61,56.54-58.45
		c23.85-13.83,50.47-20.76,79.85-20.76c30.66,0,57.7,6.93,81.13,20.76c23.42,13.84,41.94,33.33,55.58,58.45
		c13.62,25.13,20.44,55.16,20.44,90.07c0,33.65-6.93,63.14-20.76,88.48c-13.84,25.34-32.58,44.94-56.22,58.77
		C1236.23,452.72,1209.09,459.65,1178.42,459.65z M1179.06,421.32c20.01,0,38.43-4.89,55.26-14.69
		c16.82-9.79,30.44-24.37,40.88-43.76c10.43-19.37,15.65-43.33,15.65-71.87c0-28.96-5.11-53.02-15.33-72.19
		c-10.22-19.17-23.75-33.54-40.57-43.12c-16.83-9.58-35.24-14.37-55.26-14.37c-19.17,0-37.27,4.9-54.3,14.69
		c-17.04,9.8-30.77,24.18-41.2,43.12c-10.44,18.96-15.65,42.91-15.65,71.87c0,28.54,5.11,52.49,15.33,71.87
		c10.22,19.38,23.74,33.97,40.57,43.76C1141.26,416.43,1159.47,421.32,1179.06,421.32z"/>
	<path class="st0" d="M1413.51,451.98V130.01h40.88l3.19,61.97c6.81-14.9,15.97-27.47,27.47-37.69
		c11.5-10.22,25.33-18.1,41.52-23.64c16.18-5.53,34.5-8.3,54.94-8.3v46.63h-17.25c-13.64,0-26.83,1.82-39.61,5.43
		c-12.78,3.62-24.07,9.69-33.86,18.21c-9.8,8.52-17.68,20.02-23.64,34.5c-5.97,14.48-8.94,32.58-8.94,54.3v170.57H1413.51z"/>
	<path class="st0" d="M1898.07,198.36c-11.29-22.57-27.79-40.89-49.51-54.94c-21.72-14.05-48.13-21.08-79.22-21.08
		c-30.24,0-56.96,6.93-80.17,20.76c-23.22,13.85-41.2,33.33-53.98,58.45c-12.78,25.14-19.17,54.73-19.17,88.8
		c0,34.08,6.49,63.78,19.49,89.12c12.98,25.34,30.87,45.04,53.66,59.09c22.78,14.05,49.08,21.08,78.89,21.08
		c24.7,0,46.42-4.37,65.17-13.1c18.73-8.72,34.27-20.65,46.63-35.77c12.35-15.11,21.08-32.04,26.19-50.79h-44.08
		c-6.81,19.17-18.1,34.18-33.85,45.04c-15.77,10.86-35.78,16.29-60.06,16.29c-18.31,0-35.77-4.68-52.38-14.05
		c-16.61-9.37-30.13-23.64-40.56-42.81c-9.35-17.15-14.51-38.23-15.48-63.24h254.72c0.42-5.96,0.64-11.18,0.64-15.65v-13.1
		C1915,245.63,1909.35,220.94,1898.07,198.36z M1659.86,263.52c1.37-20.21,6.24-37.34,14.62-51.43c10-16.82,23.31-29.59,39.92-38.32
		s34.28-13.1,53.03-13.1c29.38,0,53.76,8.94,73.14,26.83c19.38,17.89,29.71,43.23,30.99,76.02H1659.86z"/>
</g>
</svg>
